<svg width="60" height="60" viewBox="0 0 60 60" fill="none" xmlns="http://www.w3.org/2000/svg">
<mask id="mask0_52_1611" style="mask-type:alpha" maskUnits="userSpaceOnUse" x="0" y="0" width="60" height="60">
<circle cx="30" cy="30" r="30" fill="#D9D9D9"/>
</mask>
<g mask="url(#mask0_52_1611)">
<path d="M-18 86.945C-3 66.6117 39.2 38.145 88 86.945" stroke="#F71C1C"/>
<path d="M-18 82.945C-3 62.6117 39.2 34.145 88 82.945" stroke="#F71C1C"/>
<path d="M-18 78.945C-3 58.6117 39.2 30.145 88 78.945" stroke="#F71C1C"/>
<path d="M-18 74.945C-3 54.6117 39.2 26.145 88 74.945" stroke="#F71C1C"/>
<path d="M-18 70.945C-3 50.6117 39.2 22.145 88 70.945" stroke="#F71C1C"/>
<path d="M-18 66.945C-3 46.6117 39.2 18.145 88 66.945" stroke="#F71C1C"/>
<path d="M-18 62.945C-3 42.6117 39.2 14.145 88 62.945" stroke="#F71C1C"/>
<path d="M-18 58.945C-3 38.6117 39.2 10.145 88 58.945" stroke="#F71C1C"/>
<path d="M-18 54.945C-3 34.6117 39.2 6.145 88 54.945" stroke="#F71C1C"/>
<path d="M-18 50.945C-3 30.6117 39.2 2.145 88 50.945" stroke="#F71C1C"/>
<path d="M-18 46.945C-3 26.6117 39.2 -1.855 88 46.945" stroke="#F71C1C"/>
<path d="M-18 42.945C-3 22.6117 39.2 -5.855 88 42.945" stroke="#F71C1C"/>
<path d="M-18 38.945C-3 18.6117 39.2 -9.855 88 38.945" stroke="#F71C1C"/>
<path d="M-18 34.945C-3 14.6117 39.2 -13.855 88 34.945" stroke="#F71C1C"/>
<path d="M-18 30.945C-3 10.6117 39.2 -17.855 88 30.945" stroke="#F71C1C"/>
<path d="M-18 26.945C-3 6.61167 39.2 -21.855 88 26.945" stroke="#F71C1C"/>
<path d="M-18 22.945C-3 2.61167 39.2 -25.855 88 22.945" stroke="#F71C1C"/>
</g>
</svg>
