<svg width="328" height="328" viewBox="0 0 328 328" fill="none" xmlns="http://www.w3.org/2000/svg">
<mask id="mask0_25_117" style="mask-type:alpha" maskUnits="userSpaceOnUse" x="1" y="1" width="327" height="327">
<circle cx="164" cy="164" r="163" transform="rotate(179.661 164 164)" fill="#D9D9D9"/>
</mask>
<g mask="url(#mask0_25_117)">
<path d="M388.535 -84.3328C246.266 -101.158 -44.5559 -30.7695 -69.6942 385.386" stroke="#F71C1C" stroke-width="2"/>
<path d="M393.564 -79.3624C251.296 -96.1877 -39.5265 -25.7992 -64.6648 390.357" stroke="#F71C1C" stroke-width="2"/>
<path d="M398.594 -74.3921C256.325 -91.2173 -34.4969 -20.8288 -59.6352 395.327" stroke="#F71C1C" stroke-width="2"/>
<path d="M403.623 -69.4217C261.354 -86.247 -29.4675 -15.8585 -54.6058 400.297" stroke="#F71C1C" stroke-width="2"/>
<path d="M408.653 -64.4514C266.384 -81.2767 -24.438 -10.8882 -49.5763 405.268" stroke="#F71C1C" stroke-width="2"/>
<path d="M413.682 -59.4811C271.414 -76.3063 -19.4084 -5.91783 -44.5467 410.238" stroke="#F71C1C" stroke-width="2"/>
<path d="M418.712 -54.5107C276.443 -71.336 -14.379 -0.947491 -39.5173 415.209" stroke="#F71C1C" stroke-width="2"/>
<path d="M423.741 -49.5404C281.473 -66.3657 -9.34945 4.02285 -34.4878 420.179" stroke="#F71C1C" stroke-width="2"/>
<path d="M428.771 -44.5701C286.502 -61.3953 -4.32003 8.99318 -29.4584 425.149" stroke="#F71C1C" stroke-width="2"/>
<path d="M433.8 -39.5997C291.531 -56.425 0.70951 13.9635 -24.4288 430.12" stroke="#F71C1C" stroke-width="2"/>
<path d="M438.83 -34.6294C296.561 -51.4546 5.73905 18.9339 -19.3993 435.09" stroke="#F71C1C" stroke-width="2"/>
<path d="M443.859 -29.6591C301.59 -46.4843 10.7685 23.9042 -14.3699 440.06" stroke="#F71C1C" stroke-width="2"/>
<path d="M448.889 -24.6887C306.62 -41.514 15.798 28.8745 -9.34031 445.031" stroke="#F71C1C" stroke-width="2"/>
<path d="M453.918 -19.7184C311.65 -36.5436 20.8276 33.8449 -4.31077 450.001" stroke="#F71C1C" stroke-width="2"/>
<path d="M458.948 -14.748C316.679 -31.5733 25.857 38.8152 0.71865 454.971" stroke="#F71C1C" stroke-width="2"/>
<path d="M463.977 -9.77771C321.708 -26.603 30.8865 43.7855 5.74819 459.942" stroke="#F71C1C" stroke-width="2"/>
<path d="M469.007 -4.80737C326.738 -21.6326 35.9159 48.7559 10.7776 464.912" stroke="#F71C1C" stroke-width="2"/>
<path d="M474.036 0.162969C331.767 -16.6623 40.9455 53.7262 15.8072 469.882" stroke="#F71C1C" stroke-width="2"/>
<path d="M479.066 5.13331C336.797 -11.6919 45.975 58.6966 20.8367 474.853" stroke="#F71C1C" stroke-width="2"/>
<path d="M484.095 10.1035C341.826 -6.72173 51.0044 63.6668 25.8661 479.823" stroke="#F71C1C" stroke-width="2"/>
<path d="M489.125 15.0739C346.856 -1.75139 56.034 68.6371 30.8957 484.793" stroke="#F71C1C" stroke-width="2"/>
<path d="M494.154 20.0442C351.885 3.21894 61.0634 73.6074 35.9251 489.763" stroke="#F71C1C" stroke-width="2"/>
<path d="M499.184 25.0145C356.915 8.18928 66.0929 78.5778 40.9546 494.734" stroke="#F71C1C" stroke-width="2"/>
<path d="M504.213 29.9849C361.944 13.1596 71.1225 83.5481 45.9842 499.704" stroke="#F71C1C" stroke-width="2"/>
<path d="M509.243 34.9552C366.974 18.13 76.1519 88.5185 51.0136 504.674" stroke="#F71C1C" stroke-width="2"/>
<path d="M514.272 39.9255C372.003 23.1003 81.1814 93.4888 56.0431 509.645" stroke="#F71C1C" stroke-width="2"/>
<path d="M519.302 44.8959C377.033 28.0706 86.211 98.4591 61.0727 514.615" stroke="#F71C1C" stroke-width="2"/>
<path d="M524.331 49.8662C382.062 33.041 91.2404 103.429 66.1021 519.585" stroke="#F71C1C" stroke-width="2"/>
<path d="M529.361 54.8366C387.092 38.0113 96.2699 108.4 71.1316 524.556" stroke="#F71C1C" stroke-width="2"/>
<path d="M534.39 59.8069C392.121 42.9816 101.299 113.37 76.161 529.526" stroke="#F71C1C" stroke-width="2"/>
<path d="M539.42 64.7772C397.151 47.952 106.329 118.34 81.1906 534.496" stroke="#F71C1C" stroke-width="2"/>
<path d="M544.449 69.7476C402.18 52.9223 111.358 123.311 86.2201 539.467" stroke="#F71C1C" stroke-width="2"/>
<path d="M549.479 74.7179C407.21 57.8926 116.388 128.281 91.2495 544.437" stroke="#F71C1C" stroke-width="2"/>
<path d="M554.508 79.6882C412.239 62.863 121.417 133.251 96.2791 549.407" stroke="#F71C1C" stroke-width="2"/>
<path d="M559.537 84.6586C417.269 67.8333 126.447 138.222 101.308 554.378" stroke="#F71C1C" stroke-width="2"/>
<path d="M564.567 89.6289C422.298 72.8037 131.476 143.192 106.338 559.348" stroke="#F71C1C" stroke-width="2"/>
<path d="M569.597 94.5992C427.328 77.774 136.506 148.162 111.368 564.318" stroke="#F71C1C" stroke-width="2"/>
<path d="M574.626 99.5696C432.357 82.7443 141.535 153.133 116.397 569.289" stroke="#F71C1C" stroke-width="2"/>
<path d="M579.656 104.54C437.387 87.7145 146.565 158.103 121.427 574.259" stroke="#F71C1C" stroke-width="2"/>
<path d="M584.685 109.51C442.416 92.6849 151.594 163.073 126.456 579.229" stroke="#F71C1C" stroke-width="2"/>
<path d="M589.714 114.48C447.446 97.6552 156.624 168.044 131.485 584.2" stroke="#F71C1C" stroke-width="2"/>
<path d="M594.744 119.451C452.475 102.626 161.653 173.014 136.515 589.17" stroke="#F71C1C" stroke-width="2"/>
<path d="M599.773 124.421C457.505 107.596 166.683 177.984 141.544 594.14" stroke="#F71C1C" stroke-width="2"/>
<path d="M604.803 129.391C462.534 112.566 171.712 182.955 146.574 599.111" stroke="#F71C1C" stroke-width="2"/>
<path d="M609.833 134.362C467.564 117.537 176.742 187.925 151.604 604.081" stroke="#F71C1C" stroke-width="2"/>
<path d="M614.862 139.332C472.593 122.507 181.771 192.895 156.633 609.051" stroke="#F71C1C" stroke-width="2"/>
<path d="M619.891 144.302C477.623 127.477 186.801 197.866 161.662 614.022" stroke="#F71C1C" stroke-width="2"/>
<path d="M624.921 149.273C482.652 132.448 191.83 202.836 166.692 618.992" stroke="#F71C1C" stroke-width="2"/>
</g>
</svg>
